Coordinates
version=1
nRows=11
nColumns=63
inDegrees=yes

Units are S.I. units (second, meters, Newtons, ...)
If the header above contains a line with 'inDegrees', this indicates whether rotational values are in degrees (yes) or radians (no).

endheader
time	pelvis_tilt	pelvis_list	pelvis_rotation	pelvis_tx	pelvis_ty	pelvis_tz	hip_flexion_r	hip_adduction_r	hip_rotation_r	knee_angle_r	knee_angle_r_beta	ankle_angle_r	subtalar_angle_r	mtp_angle_r	hip_flexion_l	hip_adduction_l	hip_rotation_l	knee_angle_l	knee_angle_l_beta	ankle_angle_l	subtalar_angle_l	mtp_angle_l	L5_S1_Flex_Ext	L5_S1_Lat_Bending	L5_S1_axial_rotation	L4_L5_Flex_Ext	L4_L5_Lat_Bending	L4_L5_axial_rotation	L3_L4_Flex_Ext	L3_L4_Lat_Bending	L3_L4_axial_rotation	L2_L3_Flex_Ext	L2_L3_Lat_Bending	L2_L3_axial_rotation	L1_L2_Flex_Ext	L1_L2_Lat_Bending	L1_L2_axial_rotation	L1_T12_Flex_Ext	L1_T12_Lat_Bending	L1_T12_axial_rotation	Abs_r3	Abs_r2	Abs_r1	Abs_t1	Abs_t2	neck_flexion	neck_bending	neck_rotation	arm_flex_r	arm_add_r	arm_rot_r	elbow_flex_r	pro_sup_r	wrist_flex_r	wrist_dev_r	arm_flex_l	arm_add_l	arm_rot_l	elbow_flex_l	pro_sup_l	wrist_flex_l	wrist_dev_l
      1.27118644	      2.22120107	      0.85542120	     83.83253050	      0.16166398	      0.91978649	      0.41915909	    -12.53246694	      0.97250980	    -21.71328888	      8.05248297	      0.14054234	     30.88064524	     12.79346780	      0.00000000	    -14.57703660	     -2.08516256	      5.70787779	      0.23269326	      0.00406126	     31.46990969	     -9.45854240	      0.00000000	     -0.04028977	      0.55797325	     -1.05094491	     -0.07482212	      0.74210442	     -1.11662896	     -0.06619206	      1.35665615	     -1.11662896	     -0.04604717	      1.35665615	     -0.91957679	     -0.03741308	      1.13781904	     -0.85389274	     -0.02302157	      0.86430056	     -0.78820868	     -0.28778577	      6.31190496	     -5.84504029	      0.00000000	      0.00000000	     25.49085083	     -1.27686575	     -0.78717808	      6.85163646	    -13.72082939	    116.94664816	     15.47732865	      5.91613006	      4.84236837	     -5.23395147	      1.41203465	     -5.00046542	    146.45401428	      4.15865333	     30.13663780	     -0.79933722	     -0.03224252
      1.28813559	      2.09071271	      0.70454032	     83.98017140	      0.16145245	      0.91959453	      0.41955809	    -12.33016004	      0.86997634	    -21.83605531	      8.11110105	      0.14156542	     30.83815968	     12.57707943	      0.00000000	    -14.37644013	     -1.99555637	      5.95561461	      0.23271765	      0.00406169	     31.26359742	     -9.56303025	      0.00000000	     -0.03071113	      0.54848302	     -1.10187628	     -0.05703363	      0.72948242	     -1.17074355	     -0.05045531	      1.33358161	     -1.17074355	     -0.03509975	      1.33358161	     -0.96414174	     -0.02851835	      1.11846657	     -0.89527448	     -0.01754834	      0.84960020	     -0.82640721	     -0.21936650	      6.20454961	     -6.12830530	      0.00000000	      0.00000000	     25.14403470	     -1.27329118	      0.00913947	      6.53140333	    -13.41927735	    116.57145049	     14.54507802	      6.20438154	      5.28037869	     -5.93984617	      0.62061361	     -4.78219199	    146.57190801	      3.10492060	     29.99493897	     -0.79677368	     -0.89304967
      1.30508475	      2.09030794	      0.69592510	     84.08808400	      0.16113757	      0.91946124	      0.41995744	    -12.31643950	      0.87207970	    -21.86288157	      8.10183136	      0.14140363	     30.83805668	     12.55747171	      0.00000000	    -14.35775894	     -1.98635580	      5.93767197	      0.24273448	      0.00423652	     31.26250452	     -9.57695840	      0.00000000	     -0.05419629	      0.54656912	     -1.08364325	     -0.10064793	      0.72693693	     -1.15137095	     -0.08903908	      1.32892815	     -1.15137095	     -0.06194094	      1.32892815	     -0.94818784	     -0.05032667	      1.11456374	     -0.88046014	     -0.03096776	      0.84663556	     -0.81273243	     -0.38711867	      6.18289916	     -6.02689864	      0.00000000	      0.00000000	     25.12085833	     -1.27958914	      0.02137540	      6.50744245	    -13.43004541	    116.57842856	     14.50308653	      6.21682940	      5.27110209	     -5.94218084	      0.49893108	     -4.67424250	    146.58306630	      3.02587444	     29.98992788	     -0.81988596	     -0.90992287
      1.32203390	      2.15420645	      0.69640123	     84.25544987	      0.16048498	      0.91936311	      0.41988700	    -12.34686199	      0.95474348	    -22.16807306	      8.07091779	      0.14086409	     30.80101270	     12.35682300	      0.00000000	    -14.39333021	     -2.04174084	      5.95876062	      0.24546655	      0.00428420	     30.98759417	     -9.52192308	      0.00000000	     -0.06921571	      0.55806271	     -0.98898646	     -0.12854050	      0.74222340	     -1.05079811	     -0.11371450	      1.35687367	     -1.05079811	     -0.07910664	      1.35687367	     -0.86536315	     -0.06427371	      1.13800148	     -0.80355150	     -0.03954986	      0.86443914	     -0.74173985	     -0.49440093	      6.31291697	     -5.50044600	      0.00000000	      0.00000000	     25.15244795	     -1.37777250	      0.02031385	      6.22286899	    -13.50738498	    116.71809511	     14.31990187	      6.37131878	      5.17357348	     -5.92562500	      0.25679842	     -4.44964204	    146.72283031	      2.48944620	     30.02292057	     -1.09589560	     -0.99748541
      1.33898305	      2.40025092	      0.50518786	     84.06649918	      0.16035767	      0.91905085	      0.41958182	    -12.19621759	      1.15297071	    -22.18589974	      8.02734250	      0.14010356	     30.69329222	     12.65297219	      0.00000000	    -14.29756703	     -2.20941327	      5.80787661	      0.24950892	      0.00435475	     30.83343396	     -9.90469367	      0.00000000	     -0.04954359	      0.59043810	     -0.79666564	     -0.09200740	      0.78528267	     -0.84645725	     -0.08139516	      1.43559119	     -0.84645725	     -0.05662337	      1.43559119	     -0.69708244	     -0.04600618	      1.20402137	     -0.64729084	     -0.02830921	      0.91458861	     -0.59749923	     -0.35388489	      6.67915383	     -4.43081531	      0.00000000	      0.00000000	     25.33547235	     -2.22202835	     -1.20606078	      5.88701769	    -13.69582636	    117.66533660	     14.32534732	      7.44260237	      4.49950977	     -6.47122569	      0.14693892	     -4.17193026	    150.44280426	      2.09926937	     31.48815344	     -3.65514322	     -1.30028247
      1.35593220	      2.44610830	      0.51035955	     84.29164928	      0.15991432	      0.91885075	      0.41907473	    -12.26297815	      1.25021008	    -22.39420968	      7.97615957	      0.13921025	     30.70701633	     12.52501317	      0.00000000	    -14.33520343	     -2.28314191	      5.91736875	      0.25356521	      0.00442555	     30.75209888	     -9.82078758	      0.00000000	     -0.03719515	      0.59827675	     -0.68480115	     -0.06907512	      0.79570808	     -0.72760123	     -0.06110792	      1.45465009	     -0.72760123	     -0.04251034	      1.45465009	     -0.59920101	     -0.03453942	      1.22000595	     -0.55640094	     -0.02125331	      0.92673069	     -0.51360087	     -0.26568127	      6.76782626	     -3.80865858	      0.00000000	      0.00000000	     25.56857649	     -2.22083554	     -1.46095705	      5.60309844	    -13.93498901	    117.94831678	     14.64807511	      7.59700002	      4.44040907	     -6.23269198	      0.17706572	     -4.14228055	    150.62125288	      1.99709605	     31.52494322	     -3.78130755	     -1.24240662
      1.37288136	      2.66791512	      0.47533582	     84.04151604	      0.15969551	      0.91872480	      0.41913616	    -12.22264387	      1.37024914	    -22.38991126	      8.00918167	      0.13978659	     30.66572651	     13.02132170	      0.00000000	    -14.34835707	     -2.40643176	      5.90060303	      0.25621321	      0.00447176	     30.77785570	    -10.39738894	      0.00000000	     -0.03020231	      0.62424636	     -0.44785785	     -0.05608872	      0.83024766	     -0.47584896	     -0.04961938	      1.51779260	     -0.47584896	     -0.03451822	      1.51779260	     -0.39187562	     -0.02804587	      1.27296318	     -0.36388450	     -0.01725760	      0.96695761	     -0.33589339	     -0.21573211	      7.06159970	     -2.49085099	      0.00000000	      0.00000000	     25.96256096	     -3.30116483	     -3.65073138	      6.00913876	    -14.28997716	    122.01589963	     15.74499545	      5.61055735	      3.20167178	     -6.43399284	      0.67894962	     -3.97143265	    157.06103012	      2.03779388	     27.96736989	     -4.16522961	     -0.38556472
      1.38983051	      2.79975960	      0.48932032	     83.88571730	      0.15973150	      0.91862584	      0.41875337	    -12.30632274	      1.55014881	    -21.09309098	      7.85867232	      0.13715971	     30.46857099	     11.67235913	      0.00000000	    -14.39899243	     -2.51075741	      3.99178210	      0.26137679	      0.00456189	     31.53597110	     -7.95744359	      0.00000000	     -0.01548675	      0.63659166	     -0.26670506	     -0.02876044	      0.84666691	     -0.28337412	     -0.02544318	      1.54780897	     -0.28337412	     -0.01769981	      1.54780897	     -0.23336693	     -0.01438100	      1.29813772	     -0.21669786	     -0.00884913	      0.98608049	     -0.20002879	     -0.11062031	      7.20125221	     -1.48333352	      0.00000000	      0.00000000	     26.25781443	     -3.39275488	     -4.63864821	      5.76472851	    -14.76758524	    120.51958544	     16.55899194	      7.25895877	      2.48770414	     -6.14297035	      0.97827046	     -3.97363720	    155.88474989	      2.45366236	     29.01624948	     -4.58301471	     -0.04917453
      1.40677966	      2.80610753	      0.51643146	     83.88566085	      0.15955669	      0.91846261	      0.41880178	    -12.28644384	      1.44559361	    -21.88634697	      8.04917096	      0.14048454	     30.77590668	     12.80022614	      0.00000000	    -14.37926200	     -2.51104175	      5.27906518	      0.26005370	      0.00453879	     31.53264356	     -9.76668852	      0.00000000	     -0.00782515	      0.63388261	     -0.18033292	     -0.01453208	      0.84306388	     -0.19160373	     -0.01285594	      1.54122219	     -0.19160373	     -0.00894336	      1.54122219	     -0.15779130	     -0.00726643	      1.29261343	     -0.14652050	     -0.00447129	      0.98188417	     -0.13524969	     -0.05589426	      7.17060690	     -1.00295759	      0.00000000	      0.00000000	     26.45563630	     -3.34364094	     -5.17301044	      6.14416655	    -14.89232815	    123.11052361	     17.25935306	      4.43611857	      2.34111029	     -6.24740297	      1.24213634	     -4.06571689	    156.22032519	      2.50989220	     25.85822061	     -2.45318610	     -0.00995331
      1.42372881	      2.79225585	      0.64265668	     83.76187137	      0.15975456	      0.91847641	      0.41882743	    -12.40819433	      1.41759615	    -21.08922645	      8.06625009	      0.14078262	     30.72748942	     12.02366927	      0.00000000	    -14.47141792	     -2.47550390	      4.49905246	      0.26367721	      0.00460204	     32.14419261	     -8.85291160	      0.00000000	     -0.02132323	      0.62508834	     -0.09999734	     -0.03959938	      0.83136749	     -0.10624718	     -0.03503194	      1.51983978	     -0.10624718	     -0.02437032	      1.51983978	     -0.08749768	     -0.01980075	      1.27468014	     -0.08124784	     -0.01218410	      0.96826183	     -0.07499801	     -0.15230973	      7.07112428	     -0.55615523	      0.00000000	      0.00000000	     26.63325506	     -2.87115190	     -5.15143656	      5.94669483	    -15.11721583	    121.04242291	     17.58662603	      4.34088021	      2.28931104	     -5.80950291	      1.46509639	     -4.20203809	    155.12770608	      2.72465871	     25.26997340	     -1.22332771	     -0.07165740
      1.44067797	      2.72667494	      0.66434144	     83.77369674	      0.15994350	      0.91840556	      0.41889394	    -12.40785342	      1.32164168	    -21.31734609	      8.17398329	      0.14266292	     30.78042707	     12.33740113	      0.00000000	    -14.42930248	     -2.43351036	      4.35271472	      0.26885945	      0.00469248	     32.44072081	     -8.73574414	      0.00000000	     -0.02298970	      0.60935388	     -0.09732570	     -0.04269418	      0.81044065	     -0.10340856	     -0.03776978	      1.48158301	     -0.10340856	     -0.02627493	      1.48158301	     -0.08515999	     -0.02134824	      1.24259442	     -0.07907713	     -0.01313632	      0.94388915	     -0.07299427	     -0.16421315	      6.89313291	     -0.54129634	      0.00000000	      0.00000000	     26.75601679	     -2.33040287	     -4.78464343	      5.77578096	    -15.14195712	    119.27935968	     17.58825068	      4.21954073	      2.19986342	     -5.60061762	      1.53868239	     -4.34850392	    154.57755013	      2.75334902	     23.34135778	      0.45886497	      0.05381231
